<?xml version="1.0" standalone="no"?>
<!DOCTYPE svg PUBLIC "-//W3C//DTD SVG 20010904//EN"
 "http://www.w3.org/TR/2001/REC-SVG-20010904/DTD/svg10.dtd">
<svg version="1.0" xmlns="http://www.w3.org/2000/svg"
 width="512.000000pt" height="512.000000pt" viewBox="0 0 512.000000 512.000000"
 preserveAspectRatio="xMidYMid meet">
<metadata>
Created by potrace 1.11, written by Peter Selinger 2001-2013
</metadata>
<g transform="translate(0.000000,512.000000) scale(0.100000,-0.100000)"
fill="#000000" stroke="none">
<path d="M927 5105 c-48 -17 -85 -50 -103 -92 -12 -27 -14 -234 -14 -1208 l0
-1175 -57 0 c-210 -1 -389 -146 -432 -348 -8 -37 -11 -326 -11 -945 0 -969 0
-958 56 -1069 36 -71 132 -169 203 -207 121 -64 5 -61 1991 -61 1976 0 1856
-4 1980 58 68 34 166 130 204 201 57 106 56 88 56 954 0 792 0 798 -21 842
-26 55 -85 108 -138 123 -21 7 -101 12 -180 12 l-141 0 0 1027 0 1027 -26 -52
c-14 -29 -40 -64 -58 -77 -72 -55 -71 -55 -533 -55 l-428 0 -50 24 c-54 25
-100 71 -122 123 -10 25 -13 112 -13 385 l0 353 30 52 c33 58 72 89 133 109
35 10 -152 13 -1123 13 -962 0 -1172 -2 -1203 -14z m2600 -1351 c38 -27 73
-99 73 -148 0 -56 -34 -121 -78 -148 l-37 -23 -915 -3 -915 -2 -45 22 c-64 33
-90 76 -90 151 0 73 26 125 79 156 l36 21 932 -3 c923 -2 932 -2 960 -23z m-7
-526 c59 -41 75 -72 75 -148 0 -76 -16 -107 -75 -147 l-33 -23 -924 0 c-833 0
-928 2 -959 16 -54 26 -78 68 -82 144 -4 76 16 122 68 158 l33 22 932 0 932 0
33 -22z m-850 -1580 c58 -40 70 -77 70 -210 l0 -118 124 0 c111 0 126 -2 156
-22 47 -32 70 -82 70 -148 0 -70 -25 -118 -76 -147 -34 -20 -53 -23 -156 -23
l-118 0 0 -115 c0 -96 -3 -122 -20 -155 -51 -99 -226 -109 -294 -17 -18 24
-22 48 -26 155 l-5 127 -125 5 c-139 6 -165 15 -200 73 -27 44 -27 150 0 194
35 58 61 67 199 73 l126 5 5 126 c6 138 15 164 73 199 47 29 153 28 197 -2z"/>
</g>
</svg>
